HIERARCHY
ROOT Hips
{
    OFFSET   0.000000   0.000000   0.000000
    CHANNELS 6 Xposition Yposition Zposition Zrotation Xrotation Yrotation
    JOINT Chest
    {
        OFFSET   0.000000   8.007230   0.000000
        CHANNELS 3 Zrotation Xrotation Yrotation
        JOINT Chest2
        {
            OFFSET   0.000000  22.077100   0.000000
            CHANNELS 3 Zrotation Xrotation Yrotation
            JOINT Neck
            {
                OFFSET   0.000000  23.255100   0.000000
                CHANNELS 3 Zrotation Xrotation Yrotation
                JOINT Head
                {
                    OFFSET   0.000000  14.370100   1.956600
                    CHANNELS 3 Zrotation Xrotation Yrotation
                    End Site
                    {
                        OFFSET   0.000000  19.566000   0.000000
                    }
                }
            }
            JOINT LeftCollar
            {
                OFFSET   3.911900  19.017000  -0.467063
                CHANNELS 3 Zrotation Xrotation Yrotation
                JOINT LeftShoulder
                {
                    OFFSET  10.383700   0.000000   0.000000
                    CHANNELS 3 Zrotation Xrotation Yrotation
                    JOINT LeftElbow
                    {
                        OFFSET  26.662100   0.001193   0.000980
                        CHANNELS 3 Zrotation Xrotation Yrotation
                        JOINT LeftWrist
                        {
                            OFFSET  28.869000  -0.000059  -0.000082
                            CHANNELS 3 Zrotation Xrotation Yrotation
                            JOINT LeftFinger0
                            {
                                OFFSET   2.044650  -2.323450   3.252850
                                CHANNELS 3 Zrotation Xrotation Yrotation
                                JOINT LeftFinger01
                                {
                                    OFFSET   3.088130   0.000000   0.000000
                                    CHANNELS 3 Zrotation Xrotation Yrotation
                                    JOINT LeftFinger02
                                    {
                                        OFFSET   2.639460   0.000000   0.000000
                                        CHANNELS 3 Zrotation Xrotation Yrotation
                                        End Site
                                        {
                                            OFFSET   2.582190   0.000000   0.000000
                                        }
                                    }
                                }
                            }
                            JOINT LeftFinger1
                            {
                                OFFSET   8.364480   0.000000   3.252850
                                CHANNELS 3 Zrotation Xrotation Yrotation
                                JOINT LeftFinger11
                                {
                                    OFFSET   4.646930   0.000000   0.000000
                                    CHANNELS 3 Zrotation Xrotation Yrotation
                                    JOINT LeftFinger12
                                    {
                                        OFFSET   2.323470   0.000000   0.000000
                                        CHANNELS 3 Zrotation Xrotation Yrotation
                                        End Site
                                        {
                                            OFFSET   2.273050   0.000000   0.000000
                                        }
                                    }
                                }
                            }
                            JOINT LeftFinger2
                            {
                                OFFSET   8.364490   0.000016   1.078090
                                CHANNELS 3 Zrotation Xrotation Yrotation
                                JOINT LeftFinger21
                                {
                                    OFFSET   5.111610   0.000000   0.000000
                                    CHANNELS 3 Zrotation Xrotation Yrotation
                                    JOINT LeftFinger22
                                    {
                                        OFFSET   2.788150   0.000016   0.000000
                                        CHANNELS 3 Zrotation Xrotation Yrotation
                                        End Site
                                        {
                                            OFFSET   2.727660   0.000000   0.000000
                                        }
                                    }
                                }
                            }
                            JOINT LeftFinger3
                            {
                                OFFSET   7.899780   0.000015  -1.078090
                                CHANNELS 3 Zrotation Xrotation Yrotation
                                JOINT LeftFinger31
                                {
                                    OFFSET   4.646930   0.000000   0.000000
                                    CHANNELS 3 Zrotation Xrotation Yrotation
                                    JOINT LeftFinger32
                                    {
                                        OFFSET   2.323470   0.000000   0.000000
                                        CHANNELS 3 Zrotation Xrotation Yrotation
                                        End Site
                                        {
                                            OFFSET   2.273050   0.000000   0.000000
                                        }
                                    }
                                }
                            }
                            JOINT LeftFinger4
                            {
                                OFFSET   7.435090   0.000000  -3.252850
                                CHANNELS 3 Zrotation Xrotation Yrotation
                                JOINT LeftFinger41
                                {
                                    OFFSET   3.717550   0.000000   0.000000
                                    CHANNELS 3 Zrotation Xrotation Yrotation
                                    JOINT LeftFinger42
                                    {
                                        OFFSET   1.858770   0.000000   0.000000
                                        CHANNELS 3 Zrotation Xrotation Yrotation
                                        End Site
                                        {
                                            OFFSET   1.818440   0.000000   0.000000
                                        }
                                    }
                                }
                            }
                        }
                    }
                }
            }
            JOINT RightCollar
            {
                OFFSET  -3.911910  19.017000  -0.467062
                CHANNELS 3 Zrotation Xrotation Yrotation
                JOINT RightShoulder
                {
                    OFFSET -10.383700   0.000014   0.000000
                    CHANNELS 3 Zrotation Xrotation Yrotation
                    JOINT RightElbow
                    {
                        OFFSET -26.662100   0.001225   0.001091
                        CHANNELS 3 Zrotation Xrotation Yrotation
                        JOINT RightWrist
                        {
                            OFFSET -28.869000  -0.000020  -0.000085
                            CHANNELS 3 Zrotation Xrotation Yrotation
                            JOINT RightFinger0
                            {
                                OFFSET  -2.044650  -2.323490   3.252850
                                CHANNELS 3 Zrotation Xrotation Yrotation
                                JOINT RightFinger01
                                {
                                    OFFSET  -3.088130   0.000000   0.000000
                                    CHANNELS 3 Zrotation Xrotation Yrotation
                                    JOINT RightFinger02
                                    {
                                        OFFSET  -2.639460   0.000000   0.000000
                                        CHANNELS 3 Zrotation Xrotation Yrotation
                                        End Site
                                        {
                                            OFFSET  -2.582190   0.000000   0.000000
                                        }
                                    }
                                }
                            }
                            JOINT RightFinger1
                            {
                                OFFSET  -8.364480   0.000000   3.252850
                                CHANNELS 3 Zrotation Xrotation Yrotation
                                JOINT RightFinger11
                                {
                                    OFFSET  -4.646930   0.000000   0.000000
                                    CHANNELS 3 Zrotation Xrotation Yrotation
                                    JOINT RightFinger12
                                    {
                                        OFFSET  -2.323470   0.000000   0.000000
                                        CHANNELS 3 Zrotation Xrotation Yrotation
                                        End Site
                                        {
                                            OFFSET  -2.273050   0.000000   0.000000
                                        }
                                    }
                                }
                            }
                            JOINT RightFinger2
                            {
                                OFFSET  -8.364480   0.000000   1.078090
                                CHANNELS 3 Zrotation Xrotation Yrotation
                                JOINT RightFinger21
                                {
                                    OFFSET  -5.111620   0.000000   0.000000
                                    CHANNELS 3 Zrotation Xrotation Yrotation
                                    JOINT RightFinger22
                                    {
                                        OFFSET  -2.788160   0.000000   0.000000
                                        CHANNELS 3 Zrotation Xrotation Yrotation
                                        End Site
                                        {
                                            OFFSET  -2.727660   0.000000   0.000000
                                        }
                                    }
                                }
                            }
                            JOINT RightFinger3
                            {
                                OFFSET  -7.899780   0.000000  -1.078090
                                CHANNELS 3 Zrotation Xrotation Yrotation
                                JOINT RightFinger31
                                {
                                    OFFSET  -4.646930   0.000000   0.000000
                                    CHANNELS 3 Zrotation Xrotation Yrotation
                                    JOINT RightFinger32
                                    {
                                        OFFSET  -2.323470   0.000000   0.000000
                                        CHANNELS 3 Zrotation Xrotation Yrotation
                                        End Site
                                        {
                                            OFFSET  -2.273050   0.000000   0.000000
                                        }
                                    }
                                }
                            }
                            JOINT RightFinger4
                            {
                                OFFSET  -7.435090   0.000000  -3.252850
                                CHANNELS 3 Zrotation Xrotation Yrotation
                                JOINT RightFinger41
                                {
                                    OFFSET  -3.717550   0.000000   0.000000
                                    CHANNELS 3 Zrotation Xrotation Yrotation
                                    JOINT RightFinger42
                                    {
                                        OFFSET  -1.858760   0.000000   0.000000
                                        CHANNELS 3 Zrotation Xrotation Yrotation
                                        End Site
                                        {
                                            OFFSET  -1.818440   0.000000   0.000000
                                        }
                                    }
                                }
                            }
                        }
                    }
                }
            }
        }
    }
    JOINT LeftHip
    {
        OFFSET   9.783030   0.000000   0.000000
        CHANNELS 3 Zrotation Xrotation Yrotation
        JOINT LeftKnee
        {
            OFFSET   0.000063 -41.789100   0.000608
            CHANNELS 3 Zrotation Xrotation Yrotation
            JOINT LeftAnkle
            {
                OFFSET   0.000048 -41.133200  -0.000184
                CHANNELS 3 Zrotation Xrotation Yrotation
                JOINT LeftToe
                {
                    OFFSET   0.000000  -6.358960  14.674500
                    CHANNELS 3 Zrotation Xrotation Yrotation
                    End Site
                    {
                        OFFSET   0.000000   0.000000   3.913200
                    }
                }
            }
        }
    }
    JOINT RightHip
    {
        OFFSET  -9.783030   0.000000   0.000000
        CHANNELS 3 Zrotation Xrotation Yrotation
        JOINT RightKnee
        {
            OFFSET   0.000071 -41.789100   0.001239
            CHANNELS 3 Zrotation Xrotation Yrotation
            JOINT RightAnkle
            {
                OFFSET   0.000037 -41.133200  -0.000166
                CHANNELS 3 Zrotation Xrotation Yrotation
                JOINT RightToe
                {
                    OFFSET   0.000000  -6.358960  14.674500
                    CHANNELS 3 Zrotation Xrotation Yrotation
                    End Site
                    {
                        OFFSET   0.000000   0.000000   3.913200
                    }
                }
            }
        }
    }
}
MOTION
Frames: 4
Frame Time:   0.016667
 -0.434353  89.853000   0.229617   0.193089  -0.393634  -2.988780  -0.112887   1.938360  -1.523840  -0.174275   3.879030  -3.046460   1.819310  -0.089303  -0.001596   2.989360  -0.180740   5.724860  -5.141250  -2.362300   7.772130 -72.637800  17.369200   1.659820  -3.649010  -4.168050 -14.617600  16.578100   1.009930   9.485800  44.568600  39.812300 -82.447500 -18.208400   0.001037   0.006156  -4.104210   0.008166  -0.003966 -28.725000   7.273600 -13.018300 -24.181600  -0.008119   0.004149 -16.927100  -0.003360  -0.001714 -28.208300   4.216650  -7.803400 -36.181200  -0.002558  -0.000818 -24.096700   0.007866  -0.008669 -27.048700   4.056370  -7.887530 -28.396400  -0.011224  -0.003160 -18.912000   0.002747  -0.002702 -30.994300   1.077470  -1.781780 -46.516700   0.002155  -0.003921 -30.980100   0.007169  -0.002537   9.505580   1.973790   8.461460  70.141900   7.922900  -1.668120   2.553690  -6.594680  11.442000 -15.973500 -15.673900   1.246900 -33.414300  29.593800  62.558900  37.966600   0.004210  -0.010643  14.126200  -0.010746  -0.007509  27.455700   0.514894   0.990926  22.467400  -0.002088   0.011003  15.727200  -0.000611   0.007781  24.928900  -1.788580  -3.843310  24.979900  -0.003592   0.002161  16.643700  -0.011151   0.000782  25.467500  -3.749920  -7.818890  25.723800  -0.001665   0.002184  17.142900  -0.001355   0.003139  29.790800  -4.532510  -7.859260  45.153500  -0.000147   0.000850  30.072200   0.000382   0.003189   0.315672  -0.424575   2.081660   1.078930   2.076390  12.096600  -6.137700  -2.748020   5.538000  -0.000000   0.000000   0.000000   2.826580  -1.327840  -3.412720  -1.297930   2.907110  -3.042190 -10.185700   0.960109  -0.648921  -0.000000   0.000000   0.000000
 -0.434319  89.853100   0.222908   0.185859  -0.421308  -2.975480  -0.112698   1.956170  -1.524880  -0.173388   3.914660  -3.048560   1.818550  -0.059122  -0.001512   2.986370  -0.119785   5.756900  -5.139410  -2.380660   7.761150 -72.614800  17.403800   1.656950  -3.656390  -4.194910 -14.628400  16.552500   1.023890   9.478090  44.596300  39.828100 -82.462400 -18.190200   0.001037   0.006144  -4.095110   0.008166  -0.003986 -28.702300   7.273060 -13.026100 -24.163500  -0.008119   0.004152 -16.914500  -0.003361  -0.001718 -28.206600   4.221480  -7.813450 -36.146000  -0.002558  -0.000816 -24.073200   0.007867  -0.008664 -27.041500   4.060580  -7.897890 -28.369000  -0.011220  -0.003156 -18.893700   0.002750  -0.002701 -30.979000   1.077420  -1.787550 -46.493700   0.002151  -0.003917 -30.964800   0.007165  -0.002536   9.519640   1.960970   8.461390  70.143800   7.940910  -1.678170   2.552710  -6.601270  11.431800 -15.956800 -15.663200   1.256120 -33.392800  29.535700  62.547900  37.956200   0.004221  -0.010636  14.115000  -0.010741  -0.007494  27.482800   0.555813   1.068140  22.490000  -0.002090   0.011015  15.743100  -0.000612   0.007788  24.925800  -1.777870  -3.820830  24.979000  -0.003596   0.002140  16.640700  -0.011157   0.000775  25.477500  -3.736800  -7.788400  25.732000  -0.001670   0.002176  17.142900  -0.001357   0.003117  29.805000  -4.521180  -7.834390  45.172300  -0.000150   0.000809  30.084700   0.000376   0.003187   0.319164  -0.357737   2.081760   1.077180   2.038860  12.105500  -6.138880  -2.739260   5.523900   0.000000   0.000000   0.000000   2.838200  -1.310740  -3.432750  -1.306540   2.916700  -3.048350 -10.186000   0.950962  -0.637050   0.000000   0.000000   0.000000
 -0.434246  89.853300   0.212344   0.174695  -0.470656  -2.950200  -0.112588   1.986130  -1.527220  -0.172291   3.974590  -3.053250   1.815400  -0.004056  -0.001428   2.978210  -0.008471   5.818500  -5.136870  -2.406050   7.746220 -72.578700  17.467100   1.642920  -3.665910  -4.238790 -14.643700  16.526700   1.039920   9.464610  44.631600  39.843800 -82.477300 -18.172000   0.001036   0.006124  -4.086010   0.008166  -0.004043 -28.669500   7.272370 -13.038900 -24.137400  -0.008119   0.004154 -16.896300  -0.003362  -0.001730 -28.203500   4.231760  -7.834060 -36.098200  -0.002557  -0.000805 -24.041400   0.007871  -0.008653 -27.032000   4.069840  -7.919000 -28.330500  -0.011217  -0.003148 -18.868100   0.002759  -0.002696 -30.956400   1.077300  -1.796030 -46.459900   0.002144  -0.003904 -30.942300   0.007154  -0.002532   9.536000   1.938680   8.461240  70.146900   7.972020  -1.694540   2.552880  -6.646030  11.418400 -15.929200 -15.634300   1.278890 -33.360500  29.451400  62.508600  37.940100   0.004250  -0.010614  14.098900  -0.010736  -0.007455  27.521400   0.617680   1.185010  22.522600  -0.002098   0.011045  15.765900  -0.000613   0.007809  24.914300  -1.767160  -3.798350  24.972900  -0.003609   0.002087  16.631900  -0.011172   0.000760  25.487500  -3.723680  -7.757920  25.740100  -0.001679   0.002156  17.142900  -0.001364   0.003063  29.826000  -4.509850  -7.809530  45.201100  -0.000157   0.000720  30.103900   0.000361   0.003182   0.322656  -0.290898   2.081860   1.075440   2.001330  12.114400  -6.140840  -2.726690   5.500740  -0.000000   0.000000  -0.000000   2.859400  -1.277490  -3.467140  -1.323310   2.931910  -3.065540 -10.186600   0.936252  -0.613296   0.000000   0.000000  -0.000000
 -0.434129  89.853400   0.203631   0.167518  -0.514626  -2.923400  -0.113055   2.010170  -1.529110  -0.172515   4.022660  -3.057060   1.809220   0.049167  -0.002006   2.966890   0.099362   5.881110  -5.135880  -2.415820   7.741360 -72.553000  17.526000   1.615540  -3.665600  -4.272480 -14.651000  16.533800   1.042340   9.452360  44.659600  39.841400 -82.466800 -18.177100   0.001030   0.006113  -4.088540   0.008173  -0.004142 -28.652500   7.272920 -13.047500 -24.123700  -0.008126   0.004145 -16.886700  -0.003361  -0.001748 -28.200700   4.245150  -7.859740 -36.083200  -0.002560  -0.000784 -24.031500   0.007876  -0.008635 -27.027400   4.082360  -7.945120 -28.313800  -0.011219  -0.003135 -18.857000   0.002776  -0.002683 -30.942800   1.077120  -1.801140 -46.439500   0.002134  -0.003881 -30.928700   0.007139  -0.002524   9.540820   1.913610   8.459180  70.158900   7.994820  -1.709700   2.561790  -6.785850  11.418800 -15.904500 -15.589700   1.314190 -33.350100  29.385300  62.429600  37.929400   0.004292  -0.010574  14.091900  -0.010736  -0.007397  27.541500   0.654769   1.255210  22.539600  -0.002111   0.011091  15.777800  -0.000609   0.007842  24.889400  -1.780330  -3.831320  24.950600  -0.003631   0.002006  16.615900  -0.011195   0.000740  25.471000  -3.744210  -7.803130  25.726800  -0.001684   0.002124  17.134000  -0.001378   0.002980  29.836100  -4.524530  -7.831720  45.219100  -0.000170   0.000594  30.115900   0.000338   0.003174   0.321687  -0.354395   2.078840   1.083240   2.107900  12.110900  -6.142320  -2.720230   5.482460  -0.000000   0.000000   0.000000   2.881070  -1.243370  -3.496160  -1.342230   2.942570  -3.095580 -10.187200   0.926127  -0.584786  -0.000000   0.000000  -0.000000
